<svg xmlns="http://www.w3.org/2000/svg" viewBox="0 0 245.09 245.01"><g id="Layer_2" data-name="Layer 2"><g id="Layer_1-2" data-name="Layer 1"><path d="M0,126.67v-8.62c.46-4.09.83-8.2,1.4-12.27C5.09,79.32,15.92,56.13,34.79,37.27,66.67,5.39,105.2-6.18,149.28,3.1,205.55,15,245.37,65.65,245.09,122.88c-.1,20-4.55,39-14.14,56.55q-29.74,54.44-91.2,64.21c-3.75.6-7.55.92-11.33,1.37h-11a14.73,14.73,0,0,0-1.82-.38c-32.41-2.18-60-14.9-82.21-38.53a119.82,119.82,0,0,1-32-67.35C.78,134.74.44,130.7,0,126.67ZM193.46,38.39c-24.07-19.47-51.3-28.08-81.92-25.19C88.85,15.34,68.85,24.14,51.38,38.85c2.75,3.25,5.27,6.21,7.86,9.26l3.57-3.33c2.93-2.72,6.67-2.88,9.2-.38s2.48,6.46-.37,9.38c-1.67,1.7-3.43,3.31-5.06,4.88L74.69,74.4l3.84-1.6c3.84-1.56,7.4-.31,8.85,3.09s-.14,6.81-3.95,8.53c-1.5.67-3,1.3-4.41,1.91,1.33,5.68,2.58,11,3.87,16.48,2.34-.19,4.64-.48,6.94-.54a6.25,6.25,0,0,1,.79,12.47c-2.11.26-4.24.46-6.35.69,0,3.12,0,6.06,0,9,0,1.89-.71,4.43.23,5.47s3.56.76,5.44,1c4.23.49,6.63,3.06,6.33,6.86-.28,3.58-3.13,5.85-7.22,5.65-2.13-.11-4.25-.35-6.32-.53-1.34,5.56-2.63,10.87-4,16.38,1.63.71,3.31,1.42,5,2.18,3.58,1.64,5,5.14,3.59,8.47s-4.88,4.53-8.45,3.15c-1.53-.6-3-1.26-4.5-1.87l-7.78,15c1.76,2,3.32,3.91,5,5.69,2.72,2.84,3,6.62.56,9.23s-6.25,2.64-9.19,0c-1.39-1.25-2.73-2.56-4.12-3.86l-7.29,8.57c38,34.55,102.17,35.77,141.63.45l-8.33-9.74a36.29,36.29,0,0,1-3.27,4.37c-2.89,2.86-6.85,2.87-9.36.23s-2.23-6.52.7-9.36c1.76-1.71,3.47-3.48,5.11-5.13L170,171.14c-1.44.61-2.82,1.2-4.21,1.76-3.82,1.54-7.4.23-8.79-3.2s.2-6.75,3.82-8.39c1.65-.74,3.3-1.45,4.81-2.11l-4-16.36-3.63.28c-1.19.1-2.38.26-3.58.27a6.25,6.25,0,0,1-.77-12.46c1.75-.22,3.52-.22,5.23-.58a2.54,2.54,0,0,0,1.42-1.6,8.28,8.28,0,0,0-.07-2.37c0-3.63,0-7.26,0-11-2.4-.24-4.54-.42-6.66-.7a6.24,6.24,0,0,1,.69-12.44c2.44,0,4.87.33,7.25.5,1.31-5.6,2.55-10.93,3.84-16.43-1.65-.74-3.34-1.44-5-2.22a6.29,6.29,0,1,1,5-11.55c1.47.56,2.91,1.21,4.35,1.83l8-15.62c-1.85-1.85-3.71-3.59-5.44-5.47a6.29,6.29,0,0,1,8.86-8.92c1.34,1.2,2.64,2.46,4,3.71C188,44.88,190.58,41.78,193.46,38.39Zm9,159.29c41.85-44.17,37.9-112.41-.16-150.29l-8,9.7c1.79,1.72,3.46,3.2,5,4.81,2.62,2.74,2.67,6.49.21,9s-6.14,2.55-9,0c-1-.93-2.06-1.87-3.32-3l-5.7,11.56c1.38.62,2.46,1.11,3.55,1.58s2.36,1,3.51,1.53a6.29,6.29,0,0,1,3.34,8.38c-1.4,3.19-5,4.52-8.48,3.12-2-.8-3.92-1.65-6.25-2.64-1,4.33-1.93,8.39-2.92,12.68,2.18.22,4,.38,5.8.59a6.25,6.25,0,0,1,5.85,6.85c-.29,3.57-3.18,5.92-7,5.67-1.88-.13-3.76-.31-5.75-.47V129c2.1-.18,3.93-.38,5.76-.47,3.89-.2,6.68,2.09,7,5.65s-2.21,6.48-6.1,6.87l-5.42.59,3,12.57a47,47,0,0,1,5.94-2.46,10.17,10.17,0,0,1,4.86-.25,5.52,5.52,0,0,1,4.17,5.28,5.83,5.83,0,0,1-3.35,6.11c-2.31,1.15-4.71,2.15-7.27,3.31l5.72,11.34c1-.95,1.88-1.67,2.68-2.43,3-2.85,6.78-3,9.37-.32s2.36,6.35-.41,9.18c-1.38,1.42-2.84,2.78-4.46,4.35ZM42.31,47.64C1.39,91.78,4.76,158,42.45,197.09c2.43-2.93,4.85-5.83,7.27-8.76-1.76-1.76-3.33-3.23-4.79-4.81a6.29,6.29,0,0,1,8.91-8.87c1,.88,1.93,1.79,3.13,2.9l5.73-11.46c-2.38-1-4.43-1.9-6.45-2.83-3.66-1.68-5.14-5-3.72-8.4s5-4.67,8.84-3.1c1.81.74,3.6,1.52,5.69,2.41,1-4.34,2-8.35,3-12.59-2-.21-3.86-.38-5.67-.59a6.29,6.29,0,0,1-5.87-6.85c.3-3.47,3-5.79,6.75-5.66,2,.07,3.92.29,6.07.45V116.7c-2.1.18-3.85.34-5.59.47-4,.29-6.9-2-7.23-5.63s2.31-6.54,6.34-6.9c1.65-.15,3.3-.35,5.33-.57-1-4.31-2-8.41-3-12.66C64.85,92.43,63,93.27,61,94c-3.54,1.41-7,.11-8.45-3.13s0-6.82,3.56-8.46c2.17-1,4.36-1.92,6.84-3L57.24,67.9c-1.42,1.3-2.5,2.35-3.65,3.31A6.27,6.27,0,0,1,45,62.08c1.64-1.68,3.51-3.15,5.35-4.78Z"/></g></g></svg>