<svg width="1123" height="412" viewBox="0 0 1123 412" fill="none" xmlns="http://www.w3.org/2000/svg">
<path d="M681.83 91.8722H621.202C578.282 148.738 542.258 186.04 528.875 195.83C539.83 200.87 565.637 239.115 594.923 312.082H656.251C627.216 239.115 601.234 200.268 592.776 192.991C603.861 183.794 637.044 148.738 681.83 91.8722ZM472.061 91.8722C478.129 101.997 490.598 104.007 488.528 120.191L461 312.082H511.823L543.423 91.8722H472.061ZM823.869 156.046C821.714 171.188 816.446 176.867 806.649 176.867H746.615L752.598 135.15H812.663C822.392 135.15 825.993 140.882 823.869 156.046ZM814.642 244.482C812.229 261.565 805.788 268.82 795.024 268.82H733.399L740.661 218.295H801.038C812.381 218.295 817.238 226.463 814.642 244.482ZM880.157 144.658C885.105 110.219 876.693 91.8722 832.768 91.8722H687.403C693.546 101.997 705.993 104.014 703.938 120.191L676.326 312.082H802.073C837.823 312.082 862.397 296.918 868.768 252.704C873.679 218.295 865.708 196.165 845.245 196.165C864.193 196.165 875.765 175.291 880.157 144.658ZM1058.87 200.733C1067.52 140.699 1060.27 133.703 1015.74 133.703C971.198 133.703 961.979 140.707 953.369 200.733C944.568 261.71 951.526 270.54 996.069 270.54C1040.64 270.54 1050.12 261.71 1058.87 200.733ZM1113.3 200.085C1100.29 290.759 1059.9 317 989.43 317C918.632 317 886.087 290.759 899.09 200.085C911.956 110.614 951.671 87 1022.43 87C1092.93 87 1126.12 110.614 1113.3 200.085Z" fill="#002461"/>
<path d="M381.534 208.847C372.908 176.524 339.365 146.664 313.681 131.677C310.731 129.938 307.703 128.335 304.606 126.874C287.68 118.928 273.009 114.196 260.226 112.032C253.084 110.827 242.772 109.693 236.282 112.402C225.983 116.676 229.748 130.489 232.262 139.553C233.53 144.17 234.754 147.57 238.404 153.74C242.059 159.927 251.438 167.32 267.976 174.334C264.559 176.238 256.537 178.578 250.971 180.029C257.311 189.598 264.704 198.393 272.996 205.636C289.864 220.368 296.174 220.786 296.174 220.786C296.174 220.786 298.292 210.878 297.385 200.918C296.993 196.546 295.029 193.09 292.682 191.142C284.968 184.756 279.341 178.103 273.903 169.769C263.04 153.137 249.874 125.168 272.824 121.852C297.041 141.272 311.162 175.473 311.761 200.544C312.915 248.285 283.273 290.067 255.251 310.551C167.711 374.585 82.637 340.512 82.637 340.512C82.637 340.512 111.073 381.287 163.325 394.828C223.253 410.369 303.391 391.31 322.325 324.72C327.106 333.313 323.478 356.52 323.478 356.52C323.478 356.52 358.351 330.327 375.084 292.314C385.977 267.494 389.795 239.81 381.534 208.847Z" fill="#002461"/>
<path d="M89.0436 131.502C87.2559 146.423 86.3445 165.513 92.0334 190.716C93.6626 176.696 99.4396 159.994 108.193 146.564C127.99 116.119 164.096 94.8779 199.506 90.3615C245.973 84.4511 293.501 95.498 331.488 122.917C357.466 141.673 376.264 169.37 376.264 169.37C376.264 169.37 381.09 141.524 367.871 111.95C349.787 71.5132 311.22 37.7612 271.287 36.2132C258.641 35.7163 243.965 38.777 237.14 40.1887C237.431 33.6801 263.295 22 263.295 22C263.295 22 197.071 -3.77029 144.696 31.9035C125.449 45.0129 97.784 71.368 89.6557 127.53C89.4223 128.793 89.2154 130.09 89.0436 131.502Z" fill="#002461"/>
<path d="M219.638 288.514C234.838 263.061 235.26 234.327 226.485 205.456C220.254 186.542 209.444 182.848 188.741 174.804C192.866 172.32 201.818 169.461 207.582 167.79C191.246 149.276 166.874 135.788 143.855 139.553C134.903 141.021 126.405 143.656 119.637 155.041C133.432 152.86 154.079 159.632 165.06 168.414C206.754 201.771 203.667 262.093 164.638 290.427C154.118 298.057 136.55 304.874 123.477 305.234C104.235 305.784 88.2115 302.851 74.7818 297.732C77.0626 298.119 104.618 302.605 133.983 293.484C119.721 282.63 108.427 266.931 103.786 260.07C90.1357 239.828 44.6419 164.065 96.8593 62C78.771 66.103 61.2992 73.7417 45.4697 92.1679C24.6823 116.381 19.0814 145.833 20.7722 165.226C22.5775 185.922 30.0189 200.328 31.516 203.811C22.2121 201.977 9.47366 181.203 9.47366 181.203C9.47366 181.203 7.14878 196.331 7.14878 203.099C7.14878 203.099 -0.671288 302.648 97.0795 330.398C142.837 343.384 196.068 327.948 219.638 288.514Z" fill="#002461"/>
</svg>
