<svg xmlns="http://www.w3.org/2000/svg" viewBox="0 0 86.07398 126.88581"><path d="M85.06 44.599c-1.959-7.35-9.577-14.14-15.41-17.548a25.351 25.351 0 0 0-2.061-1.092h.001c-3.844-1.807-7.177-2.883-10.08-3.375-1.622-.274-3.964-.532-5.438.084-2.339.972-1.484 4.113-.913 6.174.288 1.05.566 1.823 1.395 3.226.83 1.407 2.96 3.088 6.716 4.683-.776.433-2.598.965-3.862 1.295 1.44 2.176 3.119 4.176 5.002 5.823 3.831 3.35 5.264 3.445 5.264 3.445s.481-2.253.275-4.518c-.089-.994-.535-1.78-1.068-2.223-1.752-1.452-3.03-2.965-4.265-4.86-2.467-3.782-5.457-10.142-.245-10.896 5.5 4.416 8.707 12.193 8.843 17.894.262 10.856-6.47 20.357-12.834 25.015-19.881 14.561-39.202 6.813-39.202 6.813s6.458 9.272 18.325 12.351c13.61 3.534 31.81-.8 36.11-15.942 1.086 1.954.262 7.231.262 7.231s7.92-5.956 11.72-14.6c2.474-5.644 3.342-11.939 1.466-18.98" style="fill:#002461"/><path d="M18.633 26.947c-.406 3.393-.613 7.734.679 13.465.37-3.188 1.682-6.986 3.67-10.04 4.496-6.923 12.696-11.753 20.738-12.78 10.553-1.344 21.347 1.168 29.974 7.403 5.9 4.265 10.169 10.563 10.169 10.563s1.096-6.332-1.906-13.057C77.85 13.306 69.091 5.631 60.022 5.279c-2.872-.113-6.205.583-7.755.904.066-1.48 5.94-4.136 5.94-4.136s-15.04-5.86-26.935 2.252c-4.371 2.981-10.654 8.974-12.5 21.745-.053.287-.1.582-.139.903" style="fill:#002461"/><path d="M48.292 62.715c3.452-5.788 3.548-12.322 1.555-18.887-1.415-4.301-3.87-5.141-8.572-6.97.937-.565 2.97-1.215 4.279-1.595-3.71-4.21-9.245-7.277-14.473-6.421-2.033.334-3.963.933-5.5 3.522 3.133-.496 7.822 1.044 10.316 3.041 9.469 7.585 8.768 21.302-.096 27.745-2.389 1.735-6.379 3.285-9.348 3.367-4.37.125-8.009-.542-11.059-1.706.518.088 6.776 1.108 13.445-.966-3.239-2.468-5.804-6.038-6.858-7.598-3.1-4.603-13.432-21.831-1.573-45.04-4.108.933-8.076 2.67-11.671 6.86C4.016 23.573 2.744 30.27 3.128 34.68c.41 4.706 2.1 7.982 2.44 8.774-2.113-.417-5.006-5.141-5.006-5.141s-.528 3.44-.528 4.979c0 0-1.776 22.637 20.424 28.947 10.392 2.953 22.481-.557 27.834-9.524M29.042 97.313h-7.964c-5.638 7.47-10.37 12.37-12.128 13.656 1.439.662 4.829 5.686 8.676 15.271h8.056c-3.814-9.585-7.227-14.688-8.338-15.644 1.456-1.208 5.815-5.813 11.698-13.283M1.487 97.313c.797 1.33 2.435 1.594 2.163 3.72L.034 126.24H6.71l4.151-28.927H1.487ZM47.7 105.743c-.283 1.989-.975 2.735-2.262 2.735h-7.886l.786-5.48h7.89c1.278 0 1.752.753 1.473 2.745m-1.213 11.617c-.317 2.244-1.163 3.197-2.577 3.197h-8.095l.954-6.637h7.931c1.49 0 2.128 1.073 1.787 3.44m8.606-13.113c.65-4.524-.455-6.934-6.225-6.934H29.774c.807 1.33 2.442 1.595 2.172 3.72l-3.627 25.207h16.518c4.696 0 7.924-1.992 8.761-7.8.645-4.52-.402-7.427-3.09-7.427 2.489 0 4.009-2.742 4.586-6.766M78.57 111.613c1.136-7.886.184-8.805-5.666-8.805-5.851 0-7.062.92-8.193 8.805-1.156 8.01-.242 9.17 5.609 9.17 5.855 0 7.1-1.16 8.25-9.17m7.149-.085c-1.709 11.911-7.014 15.358-16.271 15.358-9.3 0-13.575-3.447-11.867-15.358 1.69-11.753 6.907-14.855 16.202-14.855 9.26 0 13.62 3.102 11.936 14.855" style="fill:#002461"/></svg>