<svg width="185" height="31" viewBox="0 0 185 31" fill="none" xmlns="http://www.w3.org/2000/svg">
<g clip-path="url(#clip0_248_6858)">
<path d="M53.7768 10.1649H46.4378C43.0083 10.1649 41.4522 12.3835 41.0244 13.9758L38.1172 24.849H39.2479C40.8157 24.849 41.9604 24.3712 42.2239 23.4833C42.8312 21.218 44.0353 16.7131 44.6403 14.4467C44.8781 13.5681 45.7698 13.0961 46.3818 13.0961L51.7602 13.0985C52.6939 13.0985 53.8386 13.2492 53.3246 14.9747C53.0343 15.9993 52.1146 16.5133 50.5712 16.5133H48.1665C46.5788 16.5133 45.4178 17.0017 45.173 17.9153L44.7604 19.4457H49.9896C53.2138 19.4457 56.0522 18.7646 57.099 14.8614C57.9837 11.5599 56.4252 10.1649 53.7768 10.1649Z" fill="#00458C"/>
<path d="M69.741 17.2584L69.5801 17.8612C68.791 20.8076 66.4386 22.407 64.5071 22.407H63.7786C61.8494 22.407 60.3457 20.8076 61.1383 17.8612L61.298 17.2584C62.0849 14.3096 64.4372 12.7138 66.3699 12.7138H67.0984C69.0276 12.7138 70.5278 14.3096 69.741 17.2584ZM67.8852 9.74869H67.1381C62.9067 9.74869 58.7231 12.5584 57.6285 16.6555L57.1739 18.3612C56.077 22.4549 58.758 25.2657 62.9906 25.2657H63.7366C68.6907 25.2657 72.1528 22.4549 73.2485 18.3612L73.7043 16.6555C74.8 12.5584 72.119 9.74869 67.8852 9.74869Z" fill="#00458C"/>
<path d="M23.2668 8.23666H19.6614C18.1915 8.23666 16.9897 8.73785 16.3159 9.31264L7.59902 15.6085C8.29842 13.0032 8.98151 10.4424 9.57367 8.23666H7.05348C5.49148 8.23666 4.35029 8.70981 4.07985 9.59303L0 24.8484H2.50969C4.09851 24.8484 5.25951 24.36 5.50197 23.4476V23.457C6.00904 21.5679 6.56157 19.4977 7.11993 17.41L12.1603 23.7268C12.6522 24.3414 13.1954 24.8484 14.9766 24.8484H18.8256L12.2547 16.6798L23.2668 8.23666Z" fill="#00458C"/>
<path d="M34.3905 15.905L29.3023 15.9097C27.9221 15.9097 27.2764 15.6328 27.6307 14.4482C27.921 13.4271 28.7906 13.0988 30.3316 13.0988H36.7591C38.3456 13.0988 39.5031 12.6105 39.7479 11.6992L40.157 10.1653H30.9144C27.6937 10.1653 24.8319 10.9083 23.8551 14.5639C23.1755 17.1002 24.4135 18.8538 27.2845 18.8397H32.3703C33.7878 18.8397 34.3846 19.147 34.0198 20.3784C33.7307 21.4018 32.8133 21.9135 31.2676 21.9135H24.7643C23.1779 21.9135 22.0192 22.4018 21.7756 23.3131L21.3652 24.8494H30.686C34.1701 24.8494 36.7894 24.0187 37.7954 20.265C38.5869 17.3011 36.9071 15.905 34.3905 15.905Z" fill="#00458C"/>
<path d="M81.1105 5.39863C80.8215 5.23273 80.6921 5.22923 80.4554 5.48391C79.5159 6.50031 77.8432 8.41161 76.998 9.37194C78.1369 11.0192 78.9925 13.67 78.4994 17.0639C78.4307 17.2929 78.5729 17.4506 78.7804 17.2438L78.778 17.2461C80.9135 15.079 83.2985 12.6969 85.4375 11.0741C84.5877 8.47703 82.7075 6.31339 81.1105 5.39863Z" fill="#F39700"/>
<path d="M67.8598 4.84001C67.7444 4.90426 67.7444 5.07366 67.861 5.07249C70.8953 5.0024 72.9177 5.69518 74.5998 6.92188C76.5161 5.35288 79.7579 2.89249 81.335 2.08054C81.9575 1.931 83.0684 1.79898 83.8214 1.77445C83.1651 2.47892 82.2419 3.507 81.715 4.08647C81.5798 4.23717 81.7162 4.36802 81.8724 4.30727C86.1761 2.6121 91.896 1.31064 96.5587 0.974177C85.9196 -1.25256 75.6197 0.46364 67.8598 4.84001Z" fill="#00458C"/>
<path d="M98.1105 1.33809C93.9665 1.83695 88.4179 3.66413 85.5912 5.13383C85.196 5.34061 85.2718 5.48431 85.5714 5.61866C86.4922 6.03223 88.13 7.04863 89.0544 8.48328C95.1404 4.84643 100.317 3.04261 102.074 2.44796C100.768 2.02363 99.4462 1.65337 98.1105 1.33809Z" fill="#009DE2"/>
<path d="M95.2345 24.746H94.5188L92.9428 26.8197H92.9277V24.746H92.3262V29.5243H92.9277V27.2099H92.9428L94.6074 29.5243H95.3849L93.4464 27.0032L95.2345 24.746Z" fill="#00458C"/>
<path d="M96.8082 29.1051C96.2626 29.1051 96.0085 28.653 96.0085 27.7791C96.0085 26.9005 96.2626 26.4496 96.8082 26.4496C97.3537 26.4496 97.6078 26.9005 97.6078 27.7791C97.6078 28.653 97.3537 29.1051 96.8082 29.1051ZM96.8082 25.9869C95.8873 25.9869 95.4082 26.6832 95.4082 27.7791C95.4082 28.8749 95.8873 29.5724 96.8082 29.5724C97.7291 29.5724 98.2093 28.8749 98.2093 27.7791C98.2093 26.6832 97.7291 25.9869 96.8082 25.9869Z" fill="#00458C"/>
<path d="M99.4308 26.5799H99.4145L99.3947 26.0332H98.8398C98.8492 26.2785 98.8702 26.5344 98.8702 26.7844V29.5251H99.4437V27.6746C99.4437 26.9164 99.7572 26.5344 100.203 26.5344C100.275 26.5334 100.348 26.5396 100.419 26.5531V25.9864C99.9088 25.9864 99.6127 26.1582 99.4308 26.5799Z" fill="#00458C"/>
<path d="M101.321 27.5101C101.334 26.6947 101.664 26.4236 102.03 26.4236C102.488 26.4236 102.713 26.7835 102.713 27.5101H101.321ZM102.066 25.9867C101.199 25.9867 100.721 26.683 100.721 27.7788C100.721 28.8747 101.199 29.5721 102.12 29.5721C102.467 29.5721 102.822 29.4939 103.098 29.3665L103.07 28.8466C102.873 28.9903 102.558 29.134 102.27 29.134C101.633 29.134 101.321 28.759 101.321 27.9506H103.288V27.6398C103.288 26.6152 102.848 25.9867 102.066 25.9867Z" fill="#00458C"/>
<path d="M105.727 28.2508C105.727 28.731 105.412 29.134 104.913 29.134C104.515 29.134 104.325 28.8922 104.325 28.5254C104.325 28.1188 104.646 27.7999 105.321 27.7999C105.478 27.7999 105.622 27.7999 105.727 27.8116V28.2508ZM106.272 27.169C106.272 26.6748 106.121 26.4645 105.97 26.3138C105.864 26.2028 105.554 25.9867 105.042 25.9867C104.701 25.9867 104.345 26.086 104.061 26.2753L104.123 26.8138C104.32 26.5942 104.661 26.4493 105.014 26.4493C105.256 26.4493 105.478 26.5113 105.597 26.6678C105.706 26.8197 105.727 26.9704 105.727 27.2286V27.3875H105.393C104.197 27.3875 103.752 27.8875 103.752 28.5628C103.752 29.2357 104.182 29.5721 104.757 29.5721C105.287 29.5721 105.576 29.3175 105.734 29.0523H105.745L105.781 29.5242H106.3C106.281 29.3469 106.272 29.1687 106.272 28.9903V27.169Z" fill="#00458C"/>
<path d="M110.047 26.8277C109.364 26.4282 109.242 26.2354 109.242 25.9282C109.242 25.5263 109.534 25.219 109.984 25.219C110.28 25.219 110.574 25.3008 110.798 25.4387V24.858C110.523 24.7522 110.232 24.6975 109.937 24.6968C109.214 24.6968 108.613 25.108 108.613 25.8966C108.613 26.5111 108.806 26.8055 109.664 27.3266C110.305 27.7168 110.403 27.9259 110.403 28.2986C110.403 28.6865 110.095 29.0521 109.556 29.0521C109.277 29.0521 108.921 28.9084 108.648 28.7414V29.3664C108.898 29.4902 109.263 29.572 109.644 29.572C110.559 29.572 111.031 28.9762 111.031 28.2157C111.031 27.6677 110.785 27.2495 110.047 26.8277Z" fill="#00458C"/>
<path d="M113.038 29.1052C112.513 29.1052 112.273 28.6531 112.273 27.7792C112.273 26.9006 112.513 26.4497 113.038 26.4497C113.564 26.4497 113.804 26.9006 113.804 27.7792C113.804 28.6531 113.564 29.1052 113.038 29.1052ZM113.174 25.987C112.67 25.987 112.41 26.2744 112.259 26.5455H112.247L112.226 26.0326H111.672C111.68 26.2464 111.701 26.4649 111.701 26.674V31.0001H112.273V29.0444H112.286C112.519 29.4113 112.778 29.5725 113.174 29.5725C113.891 29.5725 114.376 28.979 114.376 27.7792C114.376 26.5724 113.891 25.987 113.174 25.987Z" fill="#00458C"/>
<path d="M116.267 29.1051C115.723 29.1051 115.47 28.653 115.47 27.7791C115.47 26.9005 115.723 26.4496 116.267 26.4496C116.814 26.4496 117.067 26.9005 117.067 27.7791C117.067 28.653 116.814 29.1051 116.267 29.1051ZM116.267 25.9869C115.347 25.9869 114.867 26.6832 114.867 27.7791C114.867 28.8749 115.347 29.5724 116.267 29.5724C117.189 29.5724 117.667 28.8749 117.667 27.7791C117.667 26.6832 117.189 25.9869 116.267 25.9869Z" fill="#00458C"/>
<path d="M118.888 26.5799H118.875L118.854 26.0332H118.301C118.31 26.2785 118.331 26.5344 118.331 26.7844V29.5251H118.903V27.6746C118.903 26.9164 119.217 26.5344 119.66 26.5344C119.733 26.5332 119.806 26.5395 119.878 26.5531V25.9864C119.367 25.9864 119.076 26.1582 118.888 26.5799Z" fill="#00458C"/>
<path d="M121.169 25.1479L120.596 25.3196V26.0334H120.041V26.4972H120.596V28.7415C120.596 29.3583 120.877 29.5721 121.403 29.5721C121.56 29.5721 121.749 29.5289 121.886 29.4822V29.016C121.776 29.0713 121.655 29.1016 121.532 29.1048C121.272 29.1048 121.169 28.953 121.169 28.5592V26.4972H121.886V26.0334H121.169V25.1479Z" fill="#00458C"/>
<path d="M123.561 27.5992L123.356 27.5186C122.972 27.3678 122.77 27.2101 122.77 26.9286C122.77 26.654 122.968 26.4496 123.342 26.4496C123.602 26.4496 123.845 26.5173 124.025 26.6015L124.052 26.1096C123.816 26.0242 123.566 25.9827 123.315 25.9869C122.638 25.9869 122.195 26.4227 122.195 26.9987C122.195 27.4415 122.379 27.6681 122.879 27.8924L123.26 28.0676C123.582 28.209 123.703 28.3702 123.703 28.6132C123.703 28.8761 123.479 29.1051 123.041 29.1051C122.756 29.1051 122.482 29.0023 122.222 28.8469L122.186 29.3668C122.44 29.4941 122.77 29.5724 123.13 29.5724C123.928 29.5724 124.251 29.0899 124.251 28.4871C124.251 28.0583 123.985 27.7686 123.561 27.5992Z" fill="#00458C"/>
<path d="M127.574 27.0317H127.246V25.2384H127.59C128.201 25.2384 128.572 25.4989 128.572 26.1578C128.572 26.6882 128.304 27.0317 127.574 27.0317ZM127.792 24.7465H126.646V29.5248H127.246V27.5247H127.65C128.662 27.5247 129.198 27.0317 129.198 26.1006C129.198 25.6823 129.063 25.3482 128.822 25.118C128.572 24.8762 128.271 24.7465 127.792 24.7465Z" fill="#00458C"/>
<path d="M130.382 26.5799H130.366L130.345 26.0332H129.795C129.801 26.2785 129.823 26.5344 129.823 26.7844V29.5251H130.396V27.6746C130.396 26.9164 130.708 26.5344 131.153 26.5344C131.226 26.5334 131.3 26.5396 131.372 26.5531V25.9864C130.858 25.9864 130.564 26.1582 130.382 26.5799Z" fill="#00458C"/>
<path d="M133.072 29.1051C132.526 29.1051 132.274 28.653 132.274 27.7791C132.274 26.9005 132.526 26.4496 133.072 26.4496C133.617 26.4496 133.871 26.9005 133.871 27.7791C133.871 28.653 133.617 29.1051 133.072 29.1051ZM133.072 25.9869C132.151 25.9869 131.67 26.6832 131.67 27.7791C131.67 28.8749 132.151 29.5724 133.072 29.5724C133.993 29.5724 134.471 28.8749 134.471 27.7791C134.471 26.6832 133.993 25.9869 133.072 25.9869Z" fill="#00458C"/>
<path d="M138.217 25.9866C137.823 25.9866 137.558 26.1922 137.373 26.5345C137.194 26.177 136.921 25.9866 136.554 25.9866C136.168 25.9866 135.875 26.1583 135.692 26.5532H135.678L135.66 26.0333H135.104C135.112 26.2786 135.133 26.5345 135.133 26.7845V29.5253H135.704V27.3675C135.704 26.7378 135.935 26.4784 136.362 26.4784C136.704 26.4784 136.893 26.6829 136.893 27.1291V29.5253H137.469V27.3675C137.469 26.7378 137.699 26.4784 138.123 26.4784C138.464 26.4784 138.656 26.6829 138.656 27.1291V29.5253H139.229V27.0988C139.229 26.3359 138.82 25.9866 138.217 25.9866Z" fill="#00458C"/>
<path d="M141.292 29.1051C140.746 29.1051 140.493 28.653 140.493 27.7791C140.493 26.9005 140.746 26.4496 141.292 26.4496C141.838 26.4496 142.089 26.9005 142.089 27.7791C142.089 28.653 141.838 29.1051 141.292 29.1051ZM141.292 25.9869C140.37 25.9869 139.891 26.6832 139.891 27.7791C139.891 28.8749 140.37 29.5724 141.292 29.5724C142.215 29.5724 142.692 28.8749 142.692 27.7791C142.692 26.6832 142.215 25.9869 141.292 25.9869Z" fill="#00458C"/>
<path d="M144.173 25.1479L143.598 25.3208V26.0334H143.047V26.4984H143.598V28.7415C143.598 29.3583 143.88 29.5721 144.404 29.5721C144.561 29.5721 144.752 29.5289 144.89 29.4822V29.016C144.78 29.0707 144.66 29.101 144.538 29.1048C144.274 29.1048 144.173 28.953 144.173 28.5592V26.4984H144.89V26.0334H144.173V25.1479Z" fill="#00458C"/>
<path d="M145.403 25.28H146.032V24.5961H145.402L145.403 25.28ZM145.431 29.5247H146.002V26.0324H145.431V29.5247Z" fill="#00458C"/>
<path d="M148.121 29.1051C147.574 29.1051 147.321 28.653 147.321 27.7791C147.321 26.9005 147.574 26.4496 148.121 26.4496C148.665 26.4496 148.918 26.9005 148.918 27.7791C148.918 28.653 148.665 29.1051 148.121 29.1051ZM148.121 25.9869C147.2 25.9869 146.719 26.6832 146.719 27.7791C146.719 28.8749 147.2 29.5724 148.121 29.5724C149.043 29.5724 149.52 28.8749 149.52 27.7791C149.52 26.6832 149.043 25.9869 148.121 25.9869Z" fill="#00458C"/>
<path d="M151.622 25.9866C151.217 25.9866 150.927 26.1583 150.739 26.5532H150.727L150.709 26.0333H150.154C150.161 26.2786 150.181 26.5345 150.181 26.7845V29.5253H150.755V27.4212C150.755 26.7915 151.043 26.4784 151.494 26.4784C151.861 26.4784 152.066 26.7167 152.066 27.2717V29.5253H152.638V27.0988C152.638 26.3359 152.229 25.9866 151.622 25.9866Z" fill="#00458C"/>
<path d="M155.221 29.5247H155.82V27.3073H157.275V26.785H155.82V25.2663H157.35V24.7464H155.221V29.5247Z" fill="#00458C"/>
<path d="M158.999 29.1051C158.451 29.1051 158.199 28.653 158.199 27.7791C158.199 26.9005 158.451 26.4496 158.999 26.4496C159.544 26.4496 159.797 26.9005 159.797 27.7791C159.797 28.653 159.544 29.1051 158.999 29.1051ZM158.999 25.9869C158.077 25.9869 157.598 26.6832 157.598 27.7791C157.598 28.8749 158.077 29.5724 158.999 29.5724C159.92 29.5724 160.4 28.8749 160.4 27.7791C160.4 26.6832 159.92 25.9869 158.999 25.9869Z" fill="#00458C"/>
<path d="M163.518 26.0331H162.943V28.1336C162.943 28.7645 162.658 29.0799 162.205 29.0799C161.838 29.0799 161.633 28.8416 161.633 28.2843V26.0331H161.061V28.4561C161.061 29.2225 161.467 29.5718 162.076 29.5718C162.48 29.5718 162.774 29.4 162.957 29.0017H162.971L162.99 29.525H163.547C163.536 29.2785 163.518 29.0227 163.518 28.7692V26.0331Z" fill="#00458C"/>
<path d="M165.793 25.9866C165.39 25.9866 165.095 26.1583 164.912 26.5532H164.898L164.877 26.0333H164.324C164.331 26.2786 164.355 26.5345 164.355 26.7845V29.5253H164.926V27.4212C164.926 26.7915 165.211 26.4784 165.662 26.4784C166.03 26.4784 166.236 26.7167 166.236 27.2717V29.5253H166.811V27.0988C166.811 26.3359 166.398 25.9866 165.793 25.9866Z" fill="#00458C"/>
<path d="M168.809 29.1051C168.283 29.1051 168.045 28.653 168.045 27.7791C168.045 26.9005 168.283 26.4496 168.809 26.4496C169.336 26.4496 169.572 26.9005 169.572 27.7791C169.572 28.653 169.336 29.1051 168.809 29.1051ZM170.151 24.3911H169.572V26.5115H169.558C169.329 26.1423 169.069 25.9869 168.673 25.9869C167.956 25.9869 167.471 26.5723 167.471 27.7791C167.471 28.9789 167.956 29.5724 168.673 29.5724C169.178 29.5724 169.436 29.2838 169.591 29.0104H169.603L169.624 29.5245H170.175C170.167 29.3119 170.151 29.0899 170.151 28.8761V24.3911Z" fill="#00458C"/>
<path d="M172.728 28.2508C172.728 28.731 172.416 29.134 171.916 29.134C171.519 29.134 171.327 28.8922 171.327 28.5254C171.327 28.1188 171.649 27.7999 172.325 27.7999C172.481 27.7999 172.627 27.7999 172.728 27.8116V28.2508ZM173.275 27.169C173.275 26.6748 173.123 26.4645 172.973 26.3138C172.865 26.2028 172.559 25.9867 172.045 25.9867C171.697 25.9861 171.356 26.0863 171.064 26.2753L171.123 26.8138C171.324 26.5942 171.662 26.4493 172.017 26.4493C172.256 26.4493 172.481 26.5113 172.599 26.6678C172.707 26.8197 172.728 26.9704 172.728 27.2286V27.3875H172.392C171.2 27.3875 170.756 27.8875 170.756 28.5628C170.756 29.2357 171.187 29.5721 171.761 29.5721C172.292 29.5721 172.575 29.3175 172.734 29.0523H172.747L172.783 29.5242H173.302C173.284 29.3469 173.275 29.1687 173.275 28.9903V27.169Z" fill="#00458C"/>
<path d="M174.905 25.1479L174.334 25.3208V26.0334H173.781V26.4984H174.334V28.7415C174.334 29.3583 174.614 29.5721 175.14 29.5721C175.295 29.5721 175.487 29.5289 175.625 29.4822V29.016C175.512 29.0628 175.413 29.1048 175.267 29.1048C175.011 29.1048 174.905 28.953 174.905 28.5592V26.4984H175.625V26.0334H174.905V25.1479Z" fill="#00458C"/>
<path d="M176.163 29.5247H176.734V26.0324H176.164L176.163 29.5247ZM176.135 25.28H176.765V24.5961H176.135L176.135 25.28Z" fill="#00458C"/>
<path d="M178.854 29.1051C178.308 29.1051 178.052 28.653 178.052 27.7791C178.052 26.9005 178.308 26.4496 178.854 26.4496C179.399 26.4496 179.652 26.9005 179.652 27.7791C179.652 28.653 179.399 29.1051 178.854 29.1051ZM178.854 25.9869C177.931 25.9869 177.453 26.6832 177.453 27.7791C177.453 28.8749 177.931 29.5724 178.854 29.5724C179.777 29.5724 180.254 28.8749 180.254 27.7791C180.254 26.6832 179.777 25.9869 178.854 25.9869Z" fill="#00458C"/>
<path d="M182.357 25.9866C181.953 25.9866 181.66 26.1583 181.476 26.5532H181.461L181.444 26.0333H180.889C180.896 26.2786 180.917 26.5345 180.917 26.7845V29.5253H181.489V27.4212C181.489 26.7915 181.778 26.4784 182.225 26.4784C182.595 26.4784 182.802 26.7167 182.802 27.2717V29.5253H183.376V27.0988C183.376 26.3359 182.964 25.9866 182.357 25.9866Z" fill="#00458C"/>
<path d="M123.762 22.417H125.343V10.2875H123.762V22.417Z" fill="#00458C"/>
<path d="M121.484 14.3759H119.67V15.5489H121.484V22.416H123.067V10.287H121.484V14.3759Z" fill="#00458C"/>
<path d="M118.455 13.2739V12.7096H120.449V11.5378H118.455V10.13H116.787V11.5378H114.795V12.7096H116.787V13.2739C116.787 15.6922 115.917 17.0883 114.459 18.3909L115.411 19.1807C116.248 18.5755 117.289 17.51 117.621 16.3873C117.948 17.4843 118.993 18.5755 119.832 19.1807L120.785 18.3909C119.325 17.0883 118.455 15.6922 118.455 13.2739Z" fill="#00458C"/>
<path d="M155.756 12.3798C156.585 12.3798 157.174 12.8238 157.174 13.5189C157.174 14.214 156.585 14.6533 155.756 14.6533C154.929 14.6533 154.342 14.214 154.342 13.5189C154.342 12.8238 154.929 12.3798 155.756 12.3798ZM152.611 13.5189C152.611 14.9302 153.875 15.8356 155.756 15.8356C157.639 15.8356 158.903 14.9302 158.903 13.5189C158.903 13.0177 158.743 12.5808 158.456 12.2291H160.192V11.0585H156.589V9.98017H154.903V11.0585H151.299V12.2291H153.06C152.764 12.5928 152.605 13.0495 152.611 13.5189Z" fill="#00458C"/>
<path d="M150.1 17.4352H161.387V16.2656H150.1L150.1 17.4352Z" fill="#00458C"/>
<path d="M155.756 21.6138C154.715 21.6138 154.04 21.1173 154.04 20.3404C154.04 19.567 154.715 19.0693 155.756 19.0693C156.798 19.0693 157.474 19.567 157.474 20.3404C157.474 21.1173 156.798 21.6138 155.756 21.6138ZM155.756 17.9022C153.643 17.9022 152.271 18.852 152.271 20.3404C152.271 21.8322 153.643 22.7809 155.756 22.7809C157.869 22.7809 159.24 21.8322 159.24 20.3404C159.24 18.852 157.869 17.9022 155.756 17.9022Z" fill="#00458C"/>
<path d="M132.318 10.9575C133.305 10.9575 133.947 11.5417 133.947 12.4552C133.947 13.3723 133.305 13.96 132.318 13.96C131.333 13.96 130.694 13.3723 130.694 12.4552C130.694 11.5417 131.333 10.9575 132.318 10.9575ZM132.318 15.1656C134.36 15.1656 135.678 14.1119 135.678 12.4552C135.678 10.801 134.36 9.74835 132.318 9.74835C130.277 9.74835 128.959 10.801 128.959 12.4552C128.959 14.1119 130.277 15.1656 132.318 15.1656Z" fill="#00458C"/>
<path d="M131.228 16.9465H133.411V18.2286H131.228V16.9465ZM126.676 16.9465H129.542V18.2286H128.084V19.3992H134.45C134.545 19.3992 134.617 19.4739 134.617 19.5686V22.5301H136.303V19.042C136.303 18.5963 135.938 18.2286 135.492 18.2286H135.099V16.9465H137.964V15.7759H126.676V16.9465ZM148.729 10.2875H147.028V18.6184H148.729V10.2875Z" fill="#00458C"/>
<path d="M142.366 14.9084C143.347 16.6923 145.362 17.3711 145.362 17.3711L146 16.2951C143.392 15.3032 143.235 12.4398 143.229 11.9515H145.491V10.7797H139.239V11.9515H141.501C141.497 12.4398 141.343 15.3032 138.73 16.2951L139.369 17.3711C139.369 17.3711 141.386 16.6923 142.366 14.9084Z" fill="#00458C"/>
<path d="M143.011 20.8835V18.096H141.312V21.4092C141.312 21.8602 141.674 22.2235 142.124 22.2235H148.937V21.0529H143.179C143.134 21.0523 143.092 21.0342 143.06 21.0025C143.029 20.9709 143.011 20.9281 143.011 20.8835Z" fill="#00458C"/>
<path d="M167.398 21.6194C166.323 21.6194 165.624 21.0283 165.624 20.103C165.624 19.18 166.323 18.5889 167.398 18.5889C168.475 18.5889 169.174 19.18 169.174 20.103C169.174 21.0283 168.475 21.6194 167.398 21.6194ZM167.398 17.4265C165.289 17.4265 163.922 18.4674 163.922 20.103C163.922 21.7374 165.289 22.7842 167.398 22.7842C169.512 22.7842 170.877 21.7374 170.877 20.103C170.877 18.4674 169.512 17.4265 167.398 17.4265Z" fill="#00458C"/>
<path d="M171.416 12.269V11.4886C171.416 11.2727 171.331 11.0655 171.178 10.9128C171.026 10.7601 170.819 10.6743 170.604 10.6743H163.434V11.8461H169.548C169.641 11.8461 169.714 11.9209 169.714 12.0155V12.5249C169.714 14.296 169.199 15.6208 169.199 15.6208H167.208V13.3707H165.52V15.6208H161.76V16.7926H173.049V15.6208H170.844C170.838 15.6407 171.416 14.2586 171.416 12.269Z" fill="#00458C"/>
<path d="M183.067 13.1836V10.2874H181.37V14.5995C180.311 15.3741 178.334 15.6206 176.364 15.6206H175.937C175.893 15.62 175.85 15.6019 175.819 15.5702C175.788 15.5385 175.77 15.4957 175.77 15.4512V12.1064C175.77 12.0106 175.846 11.9359 175.937 11.9359H179.451V10.7664H174.881C174.666 10.7661 174.46 10.8513 174.307 11.0033C174.155 11.1554 174.069 11.3618 174.068 11.5772V15.9793C174.068 16.4291 174.433 16.7924 174.881 16.7924H175.778C176.963 16.7924 179.943 16.8415 181.37 15.8998V18.6184H183.067V14.3542H185V13.1836H183.067Z" fill="#00458C"/>
<path d="M177.451 20.8835V17.9943H175.773V21.4092C175.773 21.8602 176.137 22.2235 176.586 22.2235H183.378V21.0529H177.621C177.576 21.0523 177.534 21.0343 177.502 21.0027C177.47 20.9711 177.452 20.9283 177.451 20.8835Z" fill="#00458C"/>
<path d="M112.893 10.2875H111.199V18.6153H112.893V10.2875Z" fill="#00458C"/>
<path d="M100.272 11.6591V11.1299C100.272 10.9147 100.187 10.7084 100.035 10.5562C99.8836 10.4039 99.6779 10.3182 99.4632 10.3179H92.2664V11.4885H98.4118C98.4561 11.4885 98.4986 11.5061 98.5301 11.5374C98.5615 11.5687 98.5793 11.6112 98.5796 11.6556V12.068C98.5796 13.5856 98.1367 14.7609 98.1367 14.7609H90.6426V15.9327H95.43V17.8358H92.327V19.0052H98.3908C98.413 19.0052 98.4351 19.0097 98.4556 19.0183C98.4761 19.0269 98.4947 19.0395 98.5103 19.0553C98.5259 19.0712 98.5383 19.09 98.5466 19.1107C98.5549 19.1314 98.559 19.1535 98.5587 19.1758V22.4867H100.251V18.6501C100.251 18.5431 100.23 18.4371 100.19 18.3383C100.149 18.2394 100.089 18.1496 100.014 18.0739C99.9381 17.9983 99.8485 17.9383 99.7498 17.8975C99.6512 17.8566 99.5455 17.8356 99.4387 17.8358H97.1226V15.9327H101.924V14.7609H99.7768C99.7768 14.7609 100.272 13.429 100.272 11.6591Z" fill="#00458C"/>
<path d="M107 20.8785V17.9929H105.305V21.4054C105.305 21.8552 105.667 22.2197 106.117 22.2197H106.115H113.104V21.0468H107.167C107.145 21.0469 107.123 21.0427 107.103 21.0343C107.083 21.0259 107.064 21.0135 107.048 20.9978C107.033 20.9822 107.02 20.9636 107.012 20.9431C107.004 20.9226 106.999 20.9007 107 20.8785Z" fill="#00458C"/>
<path d="M107.539 15.1851C107.539 15.2297 107.521 15.2725 107.49 15.304C107.458 15.3356 107.416 15.3533 107.371 15.3533H105.005C104.983 15.3534 104.961 15.3492 104.94 15.3408C104.92 15.3324 104.901 15.3201 104.885 15.3044C104.87 15.2888 104.857 15.2702 104.849 15.2497C104.84 15.2292 104.836 15.2073 104.836 15.1851V11.7982C104.836 11.7048 104.912 11.6312 105.005 11.6288H107.371C107.416 11.6294 107.458 11.6475 107.49 11.6792C107.521 11.7109 107.539 11.7536 107.539 11.7982V15.1851ZM109.233 15.7108V11.2713C109.232 11.056 109.146 10.8498 108.994 10.6978C108.841 10.5459 108.635 10.4605 108.42 10.4606H103.956C103.849 10.4604 103.744 10.4812 103.646 10.5219C103.547 10.5626 103.458 10.6223 103.383 10.6975C103.307 10.7728 103.248 10.8623 103.207 10.9607C103.166 11.0592 103.145 11.1647 103.145 11.2713V15.7108C103.145 16.1606 103.508 16.5262 103.956 16.5262H108.42C108.636 16.5253 108.842 16.4391 108.994 16.2863C109.146 16.1336 109.232 15.9267 109.233 15.7108Z" fill="#00458C"/>
</g>
<defs>
<clipPath id="clip0_248_6858">
<rect width="185" height="31" fill="white"/>
</clipPath>
</defs>
</svg>
