<svg width="188" height="51" viewBox="0 0 188 51" fill="none" xmlns="http://www.w3.org/2000/svg">
<path d="M49.6681 26.2323C49.6681 36.4642 41.4261 44.7588 31.2608 44.7588C21.0946 44.7588 12.8535 36.4642 12.8535 26.2323C12.8535 16.001 21.0946 7.7063 31.2608 7.7063C41.426 7.7063 49.6681 16.0009 49.6681 26.2323Z" fill="white"/>
<path d="M39.9011 24.941C36.9732 22.9383 33.2248 23.7538 31.2538 26.765C29.6144 29.2819 27.1331 29.5951 26.1773 29.5951C23.0424 29.5951 20.9034 27.3772 20.2676 25.0835C20.2676 25.0835 20.2365 24.9674 20.2284 24.9411C19.9786 23.9823 19.9153 23.527 19.9153 22.5096C19.9153 17.0274 25.5083 10.9204 33.5569 10.9204C41.8024 10.9204 46.5215 17.2378 47.7409 20.7499C47.7181 20.6882 47.6968 20.6259 47.6768 20.5632C45.3375 13.695 38.8674 8.75842 31.2456 8.75842C21.6625 8.75842 13.8887 16.5785 13.8887 26.2319C13.8887 34.8583 20.0705 42.2416 28.6471 42.2416C35.4841 42.2416 40.0808 38.3836 42.1863 33.064C43.3441 30.1533 42.5264 26.7356 39.9011 24.941Z" fill="#003764"/>
<path d="M47.8459 21.0892C46.8289 17.6629 42.0794 10.9204 33.5556 10.9204C25.5071 10.9204 19.9141 17.0274 19.9141 22.5096C19.9141 23.527 19.9772 23.9823 20.2272 24.9412C20.1225 24.5212 20.0692 24.1033 20.0692 23.6944C20.0692 17.9834 25.7493 14.0273 31.5891 14.0273C39.4964 14.0273 45.9049 20.4775 45.9049 28.4327C45.9049 34.6688 42.3384 40.0703 37.159 42.663V42.6678C43.8383 40.2331 48.6078 33.7935 48.6078 26.232C48.6078 24.4422 48.3694 22.8637 47.8459 21.0892Z" fill="#E4032E"/>
<path d="M72.9467 26.1302V27.8979H66.6238V30.41H64.6087V27.8979H58.1562V26.1302H72.9467ZM59.3395 24.4742V18.2407H71.7634V24.4742H59.3395ZM61.3547 29.2004V32.1963H71.9668V33.964H59.3395V29.2004H61.3547ZM69.7853 19.9897H61.3176V22.7437H69.7853V19.9897ZM83.9283 25.3114C83.9283 25.8078 83.8266 26.2789 83.6233 26.7254C83.4225 27.1683 83.1366 27.5667 82.7821 27.8978C82.2889 28.357 81.6912 28.6731 80.9886 28.8469V30.8938H85.204V32.6615H74.7583V30.8938H78.9919V28.8469C78.2646 28.6607 77.6668 28.3444 77.1986 27.8978C76.8439 27.5668 76.558 27.1683 76.3574 26.7254C76.154 26.2789 76.0523 25.8077 76.0523 25.3114C76.0523 24.8154 76.154 24.3439 76.3574 23.8973C76.558 23.4545 76.8439 23.0561 77.1986 22.7252C77.556 22.3902 77.9751 22.1297 78.4558 21.9436C78.9365 21.7575 79.4478 21.6645 79.9903 21.6645C80.5325 21.6645 81.0441 21.7575 81.5247 21.9436C82.0054 22.1297 82.4243 22.3902 82.782 22.7252C83.1365 23.0561 83.4224 23.4545 83.6232 23.8973C83.8266 24.3439 83.9283 24.8155 83.9283 25.3114ZM78.8996 19.6548V17.9243H81.0627V19.6548H84.8527V21.3854H75.0911V19.6548H78.8996ZM81.9871 25.3114C81.9871 24.7782 81.7929 24.3191 81.4046 23.9346C81.0164 23.5502 80.5451 23.3577 79.9904 23.3577C79.4358 23.3577 78.9672 23.5502 78.5853 23.9346C78.2031 24.3191 78.0122 24.7783 78.0122 25.3114C78.0122 25.845 78.2031 26.304 78.5853 26.6884C78.9672 27.0729 79.4358 27.2651 79.9904 27.2651C80.5451 27.2651 81.0164 27.0729 81.4046 26.6884C81.7928 26.304 81.9871 25.845 81.9871 25.3114ZM88.4393 34.2431H86.4425V18.036H88.4393V24.8463H90.51V26.7442H88.4393V34.2431ZM91.4896 21.4783V19.7478H94.6696V18.0173H96.777V19.7478H99.8277V21.4783H96.3519L100.05 31.5079L98.3302 32.1777L95.7234 24.9393L93.1351 32.308L91.3601 31.6381L95.0762 21.4783H91.4896ZM101.196 18.0546H103.063V34.1502H101.196V26.1117H99.0143V24.288H101.196V18.0546ZM104.394 18.036H106.317V34.2432H104.394V18.036ZM123.529 25.9255V27.6932H120.238V29.2191H122.346V34.2804H120.349V30.9683H109.737V29.2191H112.03V27.6932H108.739V25.9255H123.529ZM120.368 21.4598C120.368 22.0058 120.254 22.5175 120.026 22.9949C119.801 23.4674 119.491 23.8933 119.11 24.2507C118.728 24.6108 118.281 24.8959 117.77 25.1067C117.258 25.3178 116.713 25.4231 116.134 25.4231C115.554 25.4231 115.009 25.3178 114.498 25.1067C113.986 24.8959 113.539 24.6108 113.157 24.2507C112.777 23.8935 112.466 23.4675 112.242 22.9949C112.014 22.5175 111.9 22.0058 111.9 21.4598C111.9 20.9141 112.014 20.4024 112.242 19.9247C112.467 19.4521 112.777 19.0261 113.157 18.6686C113.539 18.309 113.986 18.0238 114.498 17.8127C115.009 17.602 115.554 17.4965 116.134 17.4965C116.713 17.4965 117.258 17.6021 117.77 17.8127C118.281 18.0238 118.728 18.309 119.11 18.6686C119.491 19.0262 119.801 19.4522 120.026 19.9247C120.254 20.4024 120.368 20.914 120.368 21.4598ZM118.371 21.4598C118.371 20.8395 118.152 20.3154 117.715 19.8875C117.277 19.4595 116.75 19.2455 116.134 19.2455C115.517 19.2455 114.991 19.4595 114.553 19.8875C114.115 20.3154 113.897 20.8396 113.897 21.4598C113.897 22.0803 114.115 22.6042 114.553 23.0321C114.991 23.46 115.517 23.674 116.134 23.674C116.75 23.674 117.277 23.4599 117.715 23.0321C118.152 22.6041 118.371 22.0803 118.371 21.4598ZM118.26 29.2191V27.6932H114.008V29.2191H118.26ZM135.786 25.9814V27.7491H125.341V25.9814H128.613V22.353H130.591V25.9814H135.786ZM132.921 24.437V20.12H126.062V18.3709H134.899V24.437H132.921ZM126.487 33.964V29.1075H128.484V32.1963H139.318V33.964H126.487ZM139.022 28.6794H137.025V18.036H139.022V22.3901H141.092V24.2323H139.022V28.6794ZM152.647 24.9393V26.6698H142.201V24.9393H145.474V21.9808H147.452V24.9393H152.647ZM149.782 23.5623V20.0642H142.922V18.3523H151.76V23.5623H149.782ZM154.57 31.1171C154.571 31.6321 154.458 32.1409 154.237 32.6058C154.015 33.0769 153.72 33.4863 153.35 33.8338C152.98 34.1809 152.546 34.4572 152.046 34.6618C151.547 34.8667 151.014 34.9689 150.447 34.9689C149.88 34.9689 149.347 34.8666 148.848 34.6618C148.349 34.4572 147.914 34.1809 147.544 33.8338C147.175 33.4863 146.879 33.077 146.657 32.6058C146.435 32.1345 146.324 31.6381 146.324 31.1171C146.324 30.5961 146.435 30.0999 146.657 29.6285C146.879 29.1572 147.175 28.7477 147.544 28.4002C147.914 28.0531 148.349 27.7768 148.848 27.5722C149.347 27.3675 149.88 27.2651 150.447 27.2651C151.014 27.2651 151.547 27.3675 152.046 27.5722C152.546 27.7768 152.98 28.0531 153.35 28.4002C153.72 28.7477 154.015 29.1571 154.237 29.6285C154.458 30.0933 154.571 30.602 154.57 31.1171ZM152.573 31.1171C152.573 30.5342 152.363 30.0349 151.945 29.6191C151.526 29.2036 151.026 28.9958 150.447 28.9958C149.868 28.9958 149.368 29.2036 148.95 29.6191C148.53 30.0349 148.321 30.5343 148.321 31.1171C148.321 31.7002 148.53 32.1996 148.95 32.615C149.368 33.0305 149.868 33.2384 150.447 33.2384C151.026 33.2384 151.526 33.0305 151.945 32.615C152.363 32.1995 152.573 31.7002 152.573 31.1171ZM155.883 26.9676H153.886V18.036H155.883V21.5157H157.953V23.3205H155.883V26.9676ZM159.321 28.2887H174.112V30.075H167.715V34.2431H165.699V30.075H159.321V28.2887ZM162.482 20.3619H170.95V18.3151H172.928V26.1118H160.504V18.3151H162.482V20.3619ZM170.95 22.111H162.482V24.3439H170.95V22.111Z" fill="white"/>
</svg>
